<svg width="73" height="73" viewBox="0 0 73 73" fill="none" xmlns="http://www.w3.org/2000/svg">
<path d="M64.6963 31.9225C63.8142 30.5233 62.8713 29.2154 61.898 27.9987C60.7726 26.5692 58.6434 26.4475 57.3659 27.725L48.2409 36.85C48.9101 38.8575 49.0317 41.1692 48.4234 43.5721C47.3588 47.8608 43.8913 51.3283 39.6026 52.3929C37.1997 53.0013 34.888 52.8796 32.8805 52.2104C32.8805 52.2104 28.5309 56.56 25.398 59.6929C23.8772 61.2137 24.3638 63.8904 26.4017 64.6813C29.6563 65.9283 33.0326 66.5671 36.5001 66.5671C41.9142 66.5671 47.1763 64.9854 51.9822 62.035C56.8792 58.9933 61.2896 54.5221 64.8484 48.8342C67.738 44.2412 67.5859 36.5154 64.6963 31.9225Z" fill="#0C101F"/>
<path d="M42.6441 34.3558L30.3558 46.6441C28.8045 45.0624 27.8008 42.8724 27.8008 40.4999C27.8008 35.7245 31.6941 31.8008 36.4999 31.8008C38.8724 31.8008 41.0624 32.8045 42.6441 34.3558Z" fill="#0C101F"/>
<path d="M55.5106 21.4898L45.1993 31.801C42.9789 29.5502 39.9068 28.2119 36.5002 28.2119C29.6868 28.2119 24.2118 33.7173 24.2118 40.5002C24.2118 43.9069 25.5806 46.9789 27.801 49.1994L17.5202 59.5106H17.4897C14.1135 56.7731 11.011 53.2752 8.36475 49.1385C5.32308 44.3631 5.32308 36.6069 8.36475 31.8314C11.8931 26.2956 16.2122 21.946 21.0181 18.9652C25.8239 16.0452 31.086 14.4331 36.5002 14.4331C43.2831 14.4331 49.8531 16.9273 55.5106 21.4898Z" fill="#0C101F"/>
<path d="M45.1992 40.5C45.1992 45.2754 41.3058 49.1992 36.5 49.1992C36.3175 49.1992 36.1654 49.1992 35.9829 49.1383L45.1383 39.9829C45.1992 40.1654 45.1992 40.3175 45.1992 40.5Z" fill="#0C101F"/>
<path d="M66.2172 10.783C65.3047 9.87051 63.8143 9.87051 62.9018 10.783L6.78301 66.9322C5.87051 67.8447 5.87051 69.3351 6.78301 70.2476C7.23926 70.6734 7.81717 70.9168 8.42551 70.9168C9.03384 70.9168 9.61176 70.6734 10.068 70.2172L66.2172 14.068C67.1601 13.1555 67.1601 11.6955 66.2172 10.783Z" fill="#0C101F"/>
</svg>
